# Blender 3.2.1
# www.blender.org
mtllib ĞšÑƒĞ±2.mtl
o Cube
v -1.000000 -1.000000 1.000000
v -1.000000 1.000000 1.000000
v -1.000000 -1.000000 -1.000000
v -1.000000 1.000000 -1.000000
v 1.000000 -1.000000 1.000000
v 1.000000 1.000000 1.000000
v 1.000000 -1.000000 -1.000000
v 1.000000 1.000000 -1.000000
v -0.764439 1.000000 -0.316641
v -0.764439 -1.000000 -0.316641
v -0.687977 1.000000 -0.459691
v -0.687977 -1.000000 -0.459691
v 0.316641 1.000000 -0.764439
v 0.316641 -1.000000 -0.764439
v 0.161422 1.000000 -0.811524
v 0.161422 -1.000000 -0.811524
v -0.811524 1.000000 -0.161422
v -0.811524 -1.000000 -0.161422
v 0.585076 1.000000 -0.585076
v 0.585076 -1.000000 -0.585076
v 0.459691 1.000000 0.687977
v 0.459691 -1.000000 0.687977
v 0.316641 1.000000 0.764439
v 0.316641 -1.000000 0.764439
v 0.687977 1.000000 -0.459691
v 0.687977 -1.000000 -0.459691
v 0.161422 1.000000 0.811524
v 0.161422 -1.000000 0.811524
v -0.316641 1.000000 0.764439
v -0.316641 -1.000000 0.764439
v -0.827423 1.000000 -0.000000
v -0.827423 -1.000000 -0.000000
v -0.316641 1.000000 -0.764439
v -0.316641 -1.000000 -0.764439
v -0.459691 1.000000 0.687977
v -0.459691 -1.000000 0.687977
v 0.811524 1.000000 0.161422
v 0.811524 -1.000000 0.161422
v 0.585076 1.000000 0.585076
v 0.585076 -1.000000 0.585076
v 0.764439 1.000000 0.316641
v 0.764439 -1.000000 0.316641
v 0.827423 1.000000 0.000000
v 0.827423 -1.000000 0.000000
v -0.585076 1.000000 -0.585076
v -0.585076 -1.000000 -0.585076
v -0.459691 1.000000 -0.687977
v -0.459691 -1.000000 -0.687977
v -0.000000 1.000000 0.827423
v -0.000000 -1.000000 0.827423
v 0.000000 1.000000 -0.827423
v 0.000000 -1.000000 -0.827423
v 0.811524 1.000000 -0.161422
v 0.811524 -1.000000 -0.161422
v 0.459691 1.000000 -0.687977
v 0.459691 -1.000000 -0.687977
v 0.764439 1.000000 -0.316641
v 0.764439 -1.000000 -0.316641
v -0.764439 1.000000 0.316641
v -0.764439 -1.000000 0.316641
v -0.687977 1.000000 0.459692
v -0.687977 -1.000000 0.459692
v -0.811524 1.000000 0.161422
v -0.811524 -1.000000 0.161422
v -0.585076 1.000000 0.585076
v -0.585076 -1.000000 0.585076
v -0.161422 1.000000 0.811524
v -0.161422 -1.000000 0.811524
v 0.687977 1.000000 0.459691
v 0.687977 -1.000000 0.459691
v -0.161422 1.000000 -0.811524
v -0.161422 -1.000000 -0.811524
vn -1.0000 -0.0000 -0.0000
vn -0.0000 -0.0000 -1.0000
vn 1.0000 -0.0000 -0.0000
vn -0.0000 -0.0000 1.0000
vn -0.0000 -1.0000 -0.0000
vn -0.0000 1.0000 -0.0000
vn -0.9952 -0.0000 -0.0980
vn -0.7730 -0.0000 -0.6344
vn -0.8819 -0.0000 -0.4714
vn 0.9952 -0.0000 0.0980
vn -0.9569 -0.0000 0.2903
vn -0.9952 -0.0000 0.0980
vn -0.7730 -0.0000 0.6344
vn 0.0980 -0.0000 0.9952
vn 0.0980 -0.0000 -0.9952
vn 0.8819 -0.0000 0.4714
vn -0.0980 -0.0000 -0.9952
vn 0.2903 -0.0000 0.9569
vn -0.6344 -0.0000 0.7730
vn 0.4714 -0.0000 -0.8819
vn -0.4714 -0.0000 0.8819
vn -0.6344 -0.0000 -0.7730
vn 0.6344 -0.0000 0.7730
vn 0.9569 -0.0000 0.2903
vn -0.4714 -0.0000 -0.8819
vn 0.6344 -0.0000 -0.7730
vn 0.8819 -0.0000 -0.4714
vn -0.0980 -0.0000 0.9952
vn -0.8819 -0.0000 0.4714
vn 0.9952 -0.0000 -0.0980
vn -0.9569 -0.0000 -0.2903
vn 0.2903 -0.0000 -0.9569
vn 0.4714 -0.0000 0.8819
vn -0.2903 -0.0000 0.9569
vn -0.2903 -0.0000 -0.9569
vn 0.9569 -0.0000 -0.2903
vn 0.7730 -0.0000 0.6344
vn 0.7730 -0.0000 -0.6344
vt 0.375000 0.000000
vt 0.375000 1.000000
vt 0.125000 0.750000
vt 0.625000 0.000000
vt 0.625000 1.000000
vt 0.875000 0.750000
vt 0.375000 0.250000
vt 0.125000 0.500000
vt 0.625000 0.250000
vt 0.875000 0.500000
vt 0.375000 0.750000
vt 0.625000 0.750000
vt 0.375000 0.500000
vt 0.625000 0.500000
vt 0.187500 0.841399
vt 0.845555 0.585420
vt 0.154445 0.585420
vt 0.187500 0.658601
vt 0.156250 0.841399
vt 0.835997 0.567539
vt 0.164003 0.567539
vt 0.156250 0.658601
vt 0.937500 0.841399
vt 0.710420 0.529445
vt 0.289580 0.529445
vt 0.937500 0.658601
vt 0.968750 0.841399
vt 0.729822 0.523560
vt 0.270178 0.523560
vt 0.968750 0.658601
vt 0.218750 0.841399
vt 0.851441 0.604822
vt 0.148560 0.604822
vt 0.218750 0.658601
vt 0.875000 0.841399
vt 0.676865 0.551865
vt 0.323135 0.551865
vt 0.875000 0.658601
vt 0.692539 0.710997
vt 0.593750 0.841399
vt 0.307461 0.710997
vt 0.593750 0.658601
vt 0.710420 0.720555
vt 0.562500 0.841399
vt 0.289580 0.720555
vt 0.562500 0.658601
vt 0.843750 0.841399
vt 0.664003 0.567539
vt 0.335997 0.567539
vt 0.843750 0.658601
vt 0.729822 0.726441
vt 0.531250 0.841399
vt 0.531250 0.658601
vt 0.270178 0.726440
vt 0.789580 0.720555
vt 0.437500 0.841399
vt 0.437500 0.658601
vt 0.210420 0.720555
vt 0.250000 0.841399
vt 0.853428 0.625000
vt 0.250000 0.658601
vt 0.146572 0.625000
vt 0.062500 0.841399
vt 0.789580 0.529445
vt 0.210420 0.529445
vt 0.062500 0.658601
vt 0.807461 0.710997
vt 0.406250 0.841399
vt 0.192539 0.710997
vt 0.406250 0.658601
vt 0.648559 0.645178
vt 0.718750 0.841399
vt 0.351440 0.645178
vt 0.718750 0.658601
vt 0.676865 0.698135
vt 0.625000 0.841399
vt 0.625000 0.658601
vt 0.323135 0.698135
vt 0.654445 0.664580
vt 0.687500 0.841399
vt 0.687500 0.658601
vt 0.345555 0.664580
vt 0.750000 0.841399
vt 0.646572 0.625000
vt 0.750000 0.658601
vt 0.353428 0.625000
vt 0.125000 0.841399
vt 0.823135 0.551865
vt 0.176865 0.551866
vt 0.125000 0.658601
vt 0.093750 0.841399
vt 0.807462 0.539003
vt 0.192539 0.539003
vt 0.093750 0.658601
vt 0.750000 0.728428
vt 0.500000 0.841399
vt 0.500000 0.658601
vt 0.250000 0.728428
vt 0.000000 0.841399
vt 1.000000 0.841399
vt 0.750000 0.521572
vt 0.000000 0.658601
vt 0.250000 0.521572
vt 1.000000 0.658601
vt 0.781250 0.841399
vt 0.648560 0.604822
vt 0.351441 0.604822
vt 0.781250 0.658601
vt 0.906250 0.841399
vt 0.692539 0.539003
vt 0.307461 0.539003
vt 0.906250 0.658601
vt 0.812500 0.841399
vt 0.654445 0.585420
vt 0.345555 0.585420
vt 0.812500 0.658601
vt 0.845555 0.664580
vt 0.312500 0.841399
vt 0.154445 0.664580
vt 0.312500 0.658601
vt 0.835997 0.682461
vt 0.343750 0.841399
vt 0.164003 0.682461
vt 0.343750 0.658601
vt 0.851441 0.645178
vt 0.281250 0.841399
vt 0.148560 0.645178
vt 0.281250 0.658601
vt 0.823135 0.698135
vt 0.375000 0.841399
vt 0.176865 0.698134
vt 0.375000 0.658601
vt 0.770178 0.726441
vt 0.468750 0.841399
vt 0.229822 0.726440
vt 0.468750 0.658601
vt 0.664003 0.682461
vt 0.656250 0.841399
vt 0.656250 0.658601
vt 0.335997 0.682461
vt 0.031250 0.841399
vt 0.770178 0.523560
vt 0.229822 0.523560
vt 0.031250 0.658601
s 0
f 2/4/1 3/7/1 1/1/1
f 4/9/2 7/13/2 3/7/2
f 8/14/3 5/11/3 7/13/3
f 6/12/4 1/2/4 5/11/4
f 3/8/5 7/13/5 52/103/5
f 49/95/6 2/6/6 6/12/6
f 37/72/7 44/85/7 38/74/7
f 39/76/8 70/139/8 40/77/8
f 69/138/9 42/81/9 70/139/9
f 17/31/10 32/61/10 18/34/10
f 53/105/11 58/116/11 54/108/11
f 43/83/12 54/108/12 44/85/12
f 25/47/13 20/38/13 26/50/13
f 51/99/14 72/144/14 52/102/14
f 67/134/15 50/97/15 68/136/15
f 11/19/16 10/18/16 12/22/16
f 49/96/17 28/53/17 50/97/17
f 71/141/18 34/66/18 72/144/18
f 19/35/19 56/112/19 20/38/19
f 35/68/20 30/57/20 36/70/20
f 55/109/21 14/26/21 56/112/21
f 21/40/22 40/77/22 22/42/22
f 47/91/23 46/90/23 48/94/23
f 9/15/24 18/34/24 10/18/24
f 1/3/5 68/135/5 50/98/5
f 23/44/25 22/42/25 24/46/25
f 65/130/26 36/70/26 66/132/26
f 59/118/27 62/124/27 60/120/27
f 15/27/28 52/104/28 16/30/28
f 57/113/29 26/50/29 58/116/29
f 31/59/30 64/128/30 32/61/30
f 41/80/31 38/74/31 42/81/31
f 29/56/32 68/136/32 30/57/32
f 33/63/33 48/94/33 34/66/33
f 13/23/34 16/30/34 14/26/34
f 27/52/35 24/46/35 28/53/35
f 63/126/36 60/120/36 64/128/36
f 45/87/37 12/22/37 46/90/37
f 51/101/6 8/14/6 4/10/6
f 61/122/38 66/132/38 62/124/38
f 2/4/1 4/9/1 3/7/1
f 4/9/2 8/14/2 7/13/2
f 8/14/3 6/12/3 5/11/3
f 6/12/4 2/5/4 1/2/4
f 7/13/5 5/11/5 44/86/5
f 7/13/5 44/86/5 54/107/5
f 18/33/5 32/62/5 3/8/5
f 10/17/5 18/33/5 3/8/5
f 7/13/5 54/107/5 58/115/5
f 7/13/5 58/115/5 26/49/5
f 12/21/5 10/17/5 3/8/5
f 46/89/5 12/21/5 3/8/5
f 7/13/5 26/49/5 20/37/5
f 7/13/5 20/37/5 56/111/5
f 48/93/5 46/89/5 3/8/5
f 34/65/5 48/93/5 3/8/5
f 7/13/5 56/111/5 14/25/5
f 7/13/5 14/25/5 16/29/5
f 72/143/5 34/65/5 3/8/5
f 7/13/5 16/29/5 52/103/5
f 52/103/5 72/143/5 3/8/5
f 6/12/6 8/14/6 43/84/6
f 6/12/6 43/84/6 37/71/6
f 63/125/6 31/60/6 2/6/6
f 59/117/6 63/125/6 2/6/6
f 6/12/6 37/71/6 41/79/6
f 6/12/6 41/79/6 69/137/6
f 61/121/6 59/117/6 2/6/6
f 65/129/6 61/121/6 2/6/6
f 6/12/6 69/137/6 39/75/6
f 6/12/6 39/75/6 21/39/6
f 35/67/6 65/129/6 2/6/6
f 29/55/6 35/67/6 2/6/6
f 6/12/6 21/39/6 23/43/6
f 6/12/6 23/43/6 27/51/6
f 67/133/6 29/55/6 2/6/6
f 6/12/6 27/51/6 49/95/6
f 49/95/6 67/133/6 2/6/6
f 37/72/7 43/83/7 44/85/7
f 39/76/8 69/138/8 70/139/8
f 69/138/9 41/80/9 42/81/9
f 17/31/10 31/59/10 32/61/10
f 53/105/11 57/113/11 58/116/11
f 43/83/12 53/105/12 54/108/12
f 25/47/13 19/35/13 20/38/13
f 51/99/14 71/141/14 72/144/14
f 67/134/15 49/96/15 50/97/15
f 11/19/16 9/15/16 10/18/16
f 49/96/17 27/52/17 28/53/17
f 71/141/18 33/63/18 34/66/18
f 19/35/19 55/109/19 56/112/19
f 35/68/20 29/56/20 30/57/20
f 55/109/21 13/23/21 14/26/21
f 21/40/22 39/76/22 40/77/22
f 47/91/23 45/87/23 46/90/23
f 9/15/24 17/31/24 18/34/24
f 38/73/5 44/86/5 5/11/5
f 1/3/5 3/8/5 32/62/5
f 1/3/5 32/62/5 64/127/5
f 42/82/5 38/73/5 5/11/5
f 70/140/5 42/82/5 5/11/5
f 1/3/5 64/127/5 60/119/5
f 1/3/5 60/119/5 62/123/5
f 40/78/5 70/140/5 5/11/5
f 22/41/5 40/78/5 5/11/5
f 1/3/5 62/123/5 66/131/5
f 1/3/5 66/131/5 36/69/5
f 24/45/5 22/41/5 5/11/5
f 28/54/5 24/45/5 5/11/5
f 1/3/5 36/69/5 30/58/5
f 1/3/5 30/58/5 68/135/5
f 28/54/5 5/11/5 50/98/5
f 5/11/5 1/3/5 50/98/5
f 23/44/25 21/40/25 22/42/25
f 65/130/26 35/68/26 36/70/26
f 59/118/27 61/122/27 62/124/27
f 15/27/28 51/100/28 52/104/28
f 57/113/29 25/47/29 26/50/29
f 31/59/30 63/126/30 64/128/30
f 41/80/31 37/72/31 38/74/31
f 29/56/32 67/134/32 68/136/32
f 33/63/33 47/91/33 48/94/33
f 13/23/34 15/27/34 16/30/34
f 27/52/35 23/44/35 24/46/35
f 63/126/36 59/118/36 60/120/36
f 45/87/37 11/19/37 12/22/37
f 4/10/6 2/6/6 31/60/6
f 4/10/6 31/60/6 17/32/6
f 53/106/6 43/84/6 8/14/6
f 57/114/6 53/106/6 8/14/6
f 4/10/6 17/32/6 9/16/6
f 4/10/6 9/16/6 11/20/6
f 25/48/6 57/114/6 8/14/6
f 19/36/6 25/48/6 8/14/6
f 4/10/6 11/20/6 45/88/6
f 4/10/6 45/88/6 47/92/6
f 55/110/6 19/36/6 8/14/6
f 13/24/6 55/110/6 8/14/6
f 4/10/6 47/92/6 33/64/6
f 4/10/6 33/64/6 71/142/6
f 15/28/6 13/24/6 8/14/6
f 4/10/6 71/142/6 51/101/6
f 51/101/6 15/28/6 8/14/6
f 61/122/38 65/130/38 66/132/38
